# xmcd CD database file
#
# Track frame offsets:
#	150
#	17412
#	44122
#	61700
#	76145
#	95750
#	110042
#	120755
#	129482
#	151802
#	168450
#	182577
#	198887
#
# Disc length: 2871 seconds
#
# Revision: 0
# Processed by: cddbd v1.5.2PL0 Copyright (c) Steve Scherf et al.
# Submitted via: CDex 1.70beta2
#
DISCID=9c0b350d
DTITLE=June Christy - duet
DYEAR=1900
DGENRE=Jazz
TTITLE0=Ev'ry Time We Say Goodbye
TTITLE1=Lonely Woman
TTITLE2=Just the Way I Am
TTITLE3=You're Mine, You
TTITLE4=Angel Eyes
TTITLE5=Come To The Party
TTITLE6=Baby, Baby All The Time
TTITLE7=We Kiss In A Shadow
TTITLE8=How Long Has This Been Going On
TTITLE9=Prelude To A Kiss
TTITLE10=Thanks For You
TTITLE11=Body and Soul
TTITLE12=You're Blase
EXTD=
EXTT0=
EXTT1=
EXTT2=
EXTT3=
EXTT4=
EXTT5=
EXTT6=
EXTT7=
EXTT8=
EXTT9=
EXTT10=
EXTT11=
EXTT12=
PLAYORDER=
